<svg width="40" height="37" viewBox="0 0 40 37" fill="none" xmlns="http://www.w3.org/2000/svg">
<path fill-rule="evenodd" clip-rule="evenodd" d="M4.35151 31.5421C3.69866 31.6367 3.08483 31.737 2.51409 31.8425L2.96507 18.8589L13.283 21.6324L19.9998 6.08168L26.7166 21.6324L37.0345 18.8589L37.4855 31.8425C36.9147 31.737 36.3009 31.6367 35.648 31.5421L35.7198 33.6079C32.0367 32.9274 26.362 32.4858 20 32.4858C13.638 32.4858 7.9632 32.9274 4.28013 33.6079L4.3519 31.5421H4.35151Z" fill="url(#paint0_linear_12_730)"/>
<path fill-rule="evenodd" clip-rule="evenodd" d="M4.35151 31.5421C3.69866 31.6367 3.08483 31.737 2.51409 31.8425L2.96507 18.8589L13.283 21.6324L19.9998 6.08168L26.7166 21.6324L37.0345 18.8589L37.4855 31.8425C36.9147 31.737 36.3009 31.6367 35.648 31.5421L35.7198 33.6079C32.0367 32.9274 26.362 32.4858 20 32.4858C13.638 32.4858 7.9632 32.9274 4.28013 33.6079L4.3519 31.5421H4.35151ZM4.57038 31.5497L4.50814 33.344C8.20486 32.6894 13.7739 32.2667 19.9996 32.2667C26.2252 32.2667 31.7943 32.6894 35.491 33.344L35.4197 31.2877L35.679 31.3254C36.2338 31.4058 36.7607 31.4902 37.2569 31.5784L36.8248 19.1419L26.5904 21.893L19.9998 6.63408L13.4092 21.893L3.17474 19.1419L2.74267 31.5784C3.2389 31.4902 3.76558 31.4056 4.32032 31.3254L4.57972 31.2877L4.57038 31.5497Z" fill="url(#paint1_linear_12_730)"/>
<path fill-rule="evenodd" clip-rule="evenodd" d="M38.1608 34.4192L38.234 36.5245L35.2814 35.9789C31.7011 35.3174 26.1841 34.8969 19.9998 34.8969C13.8155 34.8969 8.29855 35.3174 4.71828 35.9789L1.76566 36.5245L1.8388 34.4192L0 34.759L0.660699 15.7429L11.896 18.7629L20 0L28.104 18.7629L39.3393 15.7429L40 34.759L38.1612 34.4192H38.1608ZM4.35155 31.5423L4.27978 33.6082C7.96285 32.9276 13.6376 32.486 19.9996 32.486C26.3616 32.486 32.0364 32.9276 35.7195 33.6082L35.6477 31.5423C36.3005 31.6369 36.9144 31.7372 37.4851 31.8427L37.0341 18.8591L26.7162 21.6326L19.9994 6.08188L13.2826 21.6326L2.96472 18.8591L2.51374 31.8427C3.08448 31.7372 3.69831 31.6369 4.35116 31.5423H4.35155Z" fill="#BD2F02"/>
<defs>
<linearGradient id="paint0_linear_12_730" x1="19.9996" y1="31.2098" x2="19.9996" y2="-0.0438189" gradientUnits="userSpaceOnUse">
<stop stop-color="#FD5621"/>
<stop offset="1" stop-color="#FE8159"/>
</linearGradient>
<linearGradient id="paint1_linear_12_730" x1="19.9996" y1="31.2098" x2="19.9996" y2="-0.0438189" gradientUnits="userSpaceOnUse">
<stop stop-color="#FD8058"/>
<stop offset="1" stop-color="#FD5621"/>
</linearGradient>
</defs>
</svg>
