<svg width="33" height="33" viewBox="0 0 33 33" fill="none" xmlns="http://www.w3.org/2000/svg">
<path d="M30.8136 17.5342C30.558 20.3003 29.5199 22.9365 27.8207 25.1341C26.1215 27.3318 23.8316 29.0001 21.2189 29.9438C18.6062 30.8876 15.7787 31.0677 13.0674 30.4631C10.3561 29.8586 7.87296 28.4943 5.90866 26.53C3.94437 24.5657 2.58012 22.0826 1.97556 19.3713C1.37099 16.6599 1.55111 13.8325 2.49484 11.2198C3.43857 8.60705 5.10688 6.31714 7.30455 4.61798C9.50222 2.91882 12.1384 1.88069 14.9045 1.62506C13.285 3.81605 12.5057 6.51553 12.7083 9.23253C12.9109 11.9495 14.082 14.5036 16.0086 16.4301C17.9351 18.3567 20.4891 19.5277 23.2061 19.7304C25.9231 19.933 28.6226 19.1537 30.8136 17.5342Z" fill="black" stroke="black" stroke-width="3.25007" stroke-linecap="round" stroke-linejoin="round"/>
</svg>
